<svg width="32" height="33" viewBox="0 0 32 33" fill="none" xmlns="http://www.w3.org/2000/svg">
<g clip-path="url(#clip0_415_1022)">
<path d="M31.9999 16.8669C31.9999 15.5096 31.8917 14.5207 31.6547 13.4932H16.3262V19.6168H25.3236C25.1418 21.14 24.163 23.4303 21.9854 24.9689L21.9555 25.1738L26.8021 28.9688L27.138 29.0024C30.2225 26.1253 31.9999 21.8903 31.9999 16.8669Z" fill="#4285F4"/>
<path d="M16.326 33.0004C20.7342 33.0004 24.4342 31.5337 27.1378 29.0032L21.9853 24.9703C20.6067 25.9427 18.756 26.619 16.3257 26.619C12.0078 26.619 8.34334 23.7409 7.0373 19.7622L6.84554 19.7787L1.80584 23.7214L1.73926 23.9068C4.4259 29.2969 9.94167 33.0004 16.326 33.0004Z" fill="#34A853"/>
<path d="M7.03982 19.7645C6.68264 18.7141 6.49874 17.6115 6.4955 16.5008C6.4955 15.3639 6.69525 14.2644 7.02185 13.2371L7.01219 13.0181L1.90924 9.01318L1.74278 9.0936C0.597529 11.391 0.000976563 13.9277 0.000976562 16.5002C0.000976563 19.0727 0.597529 21.6093 1.74278 23.9067L7.03982 19.7645Z" fill="#FBBC05"/>
<path d="M16.3266 6.38036C19.3918 6.38036 21.4599 7.71847 22.6397 8.83654L27.2466 4.29058C24.4168 1.63252 20.7348 0 16.327 0C9.94061 0 4.4265 3.70345 1.74219 9.09461L7.02059 13.2371C8.3456 9.25846 12.01 6.38036 16.3266 6.38036Z" fill="#EB4335"/>
</g>
<defs>
<clipPath id="clip0_415_1022">
<rect width="32" height="33" fill="white"/>
</clipPath>
</defs>
</svg>
