<svg width="102" height="129" viewBox="0 0 102 129" fill="none" xmlns="http://www.w3.org/2000/svg">
<g filter="url(#filter0_dd_497_15)">
<path fill-rule="evenodd" clip-rule="evenodd" d="M33.4227 116.549C34.2508 115.947 35.3138 115.636 37.5373 114.29C39.6422 112.73 39.403 113.207 41.1666 111.037C41.5559 110.104 43.7088 107.955 43.7366 106.88C45.8888 101.053 45.6224 97.1647 45.8616 95.0111C46.2425 91.5819 44.2876 88.8952 42.9911 85.701C42.3955 84.2334 38.9507 81.9099 37.4893 81.404C34.1343 80.2428 32.1138 79.0758 28.725 77.9949C25.4916 76.9632 22.3302 75.5255 18.9808 74.1215C14.5084 72.247 11.0714 68.4459 7.19516 65.5634C4.13704 63.2895 4.47842 63.2611 4 61.8765C4 62.3063 4.86839 68.8573 4.9117 69.6755C5.04632 72.2198 4.82675 76.0459 5.13725 78.3116C5.7883 83.066 5.90518 88.4923 8.01201 93.0126C10.642 98.6554 11.2557 99.0256 14.5622 104.045C15.4318 105.366 17.6612 107.518 18.8118 108.666C21.7577 111.605 22.9181 112.078 26.4546 114.178C27.3394 114.703 28.2603 115.156 29.2605 115.808C35.5838 119.931 35.1904 118.351 42.5962 120.223C45.0933 120.853 46.1726 120.21 48.7229 120.554C48.7229 120.554 51.9998 121.371 53.9948 120.793C57.0952 119.894 60.2742 119.227 61.0913 118.851C64.1055 117.463 67.597 116.238 69.7141 114.164C72.6363 111.301 75.8038 108.782 78.5361 105.398C79.237 104.53 80.086 104.068 80.6022 103.029C81.0712 102.086 81.6631 101.113 82.1837 100.177C84.7789 95.5098 85.6417 92.6491 87.0276 87.2884C87.5682 84.6097 87.7797 82.8298 88.0069 79.9461C88.7524 70.4856 85.7573 61.9833 85.5991 55.7653C85.461 50.3411 84.6163 44.5962 84.6753 39.1173C84.7393 33.1723 84.036 28.1977 84.8499 22.1692C85.2192 19.4333 85.2533 17.3442 86.0353 14.6437C87.4195 9.8633 87.6165 9.7761 90.5658 5.87289C91.9054 4.09997 93.4008 3.11243 95.238 1.67416C95.8775 1.17368 97.0524 0.477676 98 0C95.3797 0 87.922 0.515045 85.5704 1.19384C84.8528 1.40098 72.9547 3.24491 71.457 3.81977C68.3473 5.01338 66.5784 6.62065 64.8776 7.49016C64.019 7.92915 61.9499 9.95348 61.0366 10.6271C58.0886 12.8002 57.1819 13.526 54.9088 16.4288C49.66 23.1306 49.5422 24.4838 47.645 33.0139C46.3997 38.6127 46.9484 49.7659 47.008 55.9295C47.0427 59.5267 47.6439 63.3405 47.9083 66.948C48.4148 73.859 49.2657 81.6568 50.1523 88.5426C50.6292 92.2449 50.3848 96.4511 50.3878 100.225C50.1674 102.889 49.9282 102.942 48.9714 105.568C48.0968 106.679 46.9801 108.758 46.1008 109.865C45.2033 110.996 43.3736 112.515 42.2735 113.446C40.4813 114.962 40.6112 114.892 38.4461 115.594C36.9415 116.083 35.8148 116.072 33.4227 116.549Z" fill="#FCFDFD"/>
</g>
<defs>
<filter id="filter0_dd_497_15" x="0" y="0" width="102" height="129" filterUnits="userSpaceOnUse" color-interpolation-filters="sRGB">
<feFlood flood-opacity="0" result="BackgroundImageFix"/>
<feColorMatrix in="SourceAlpha" type="matrix" values="0 0 0 0 0 0 0 0 0 0 0 0 0 0 0 0 0 0 127 0" result="hardAlpha"/>
<feOffset dy="4"/>
<feGaussianBlur stdDeviation="2"/>
<feComposite in2="hardAlpha" operator="out"/>
<feColorMatrix type="matrix" values="0 0 0 0 0 0 0 0 0 0 0 0 0 0 0 0 0 0 0.25 0"/>
<feBlend mode="normal" in2="BackgroundImageFix" result="effect1_dropShadow_497_15"/>
<feColorMatrix in="SourceAlpha" type="matrix" values="0 0 0 0 0 0 0 0 0 0 0 0 0 0 0 0 0 0 127 0" result="hardAlpha"/>
<feOffset dy="4"/>
<feGaussianBlur stdDeviation="2"/>
<feComposite in2="hardAlpha" operator="out"/>
<feColorMatrix type="matrix" values="0 0 0 0 0 0 0 0 0 0 0 0 0 0 0 0 0 0 0.25 0"/>
<feBlend mode="normal" in2="effect1_dropShadow_497_15" result="effect2_dropShadow_497_15"/>
<feBlend mode="normal" in="SourceGraphic" in2="effect2_dropShadow_497_15" result="shape"/>
</filter>
</defs>
</svg>
